<?xml version="1.0" standalone="no"?>
<!DOCTYPE svg PUBLIC "-//W3C//DTD SVG 20010904//EN"
 "http://www.w3.org/TR/2001/REC-SVG-20010904/DTD/svg10.dtd">
<svg version="1.0" xmlns="http://www.w3.org/2000/svg"
 width="300.000000pt" height="300.000000pt" viewBox="0 0 300.000000 300.000000"
 preserveAspectRatio="xMidYMid meet">

<g transform="translate(0.000000,300.000000) scale(0.100000,-0.100000)"
fill="#000000" stroke="none">
<path d="M1280 1660 l0 -220 70 0 70 0 -2 218 -3 217 -67 3 -68 3 0 -221z"/>
<path d="M1444 1760 c0 -69 1 -97 3 -62 2 34 2 90 0 125 -2 34 -3 6 -3 -63z"/>
<path d="M1690 1785 c0 -52 -3 -95 -8 -95 -4 0 -23 5 -42 10 -49 15 -120 -4
-155 -40 -54 -56 -41 -164 24 -203 36 -21 112 -22 152 -2 26 14 30 14 35 0 5
-11 22 -15 70 -15 l64 0 0 220 0 220 -70 0 -70 0 0 -95z m-2 -207 c3 -76 2
-78 -23 -84 -41 -10 -65 19 -65 79 0 60 21 89 59 85 25 -3 26 -6 29 -80z"/>
<path d="M1638 1639 c-21 -12 -32 -66 -20 -99 8 -20 9 -17 8 22 -1 32 5 52 18
67 21 23 20 25 -6 10z"/>
<path d="M1850 1656 c0 -170 -3 -226 -12 -229 -8 -3 -6 -6 5 -6 16 -1 17 16
17 229 0 127 -2 230 -5 230 -3 0 -5 -101 -5 -224z"/>
<path d="M758 1839 c-22 -12 -24 -62 -4 -78 19 -16 92 -17 111 -1 18 15 20 61
3 78 -15 15 -86 15 -110 1z"/>
<path d="M320 1825 c0 -2 29 -67 65 -143 54 -114 65 -147 65 -190 l0 -52 80 0
80 0 0 60 c0 51 9 82 55 192 30 72 55 132 55 134 0 2 -15 4 -33 4 -32 0 -33
-2 -67 -90 -18 -50 -37 -93 -41 -96 -5 -3 -29 38 -53 91 l-45 95 -80 0 c-45 0
-81 -2 -81 -5z"/>
<path d="M1890 1689 c0 -170 9 -197 78 -230 61 -30 154 -31 203 -3 62 36 74
71 77 232 l4 142 -31 0 -31 0 0 -140 c0 -136 -1 -142 -25 -165 -30 -30 -64
-32 -99 -4 -26 20 -26 21 -26 165 l0 144 -75 0 -75 0 0 -141z"/>
<path d="M2064 1685 c0 -82 2 -115 3 -72 2 43 2 110 0 150 -1 40 -3 5 -3 -78z"/>
<path d="M2273 1775 c0 -33 2 -45 4 -27 2 18 2 45 0 60 -2 15 -4 0 -4 -33z"/>
<path d="M901 1799 c-1 -26 -22 -51 -51 -62 -10 -4 -9 -6 6 -6 31 -1 56 32 51
66 -4 27 -4 27 -6 2z"/>
<path d="M677 1674 c-32 -79 -46 -126 -48 -165 -1 -30 -6 -62 -11 -73 -8 -14
-7 -17 4 -14 8 3 15 30 19 79 5 56 17 97 48 169 23 52 40 99 38 104 -2 6 -24
-40 -50 -100z"/>
<path d="M1036 1699 c-87 -21 -132 -72 -123 -141 10 -76 74 -118 179 -118 81
0 110 8 106 29 -3 12 -13 15 -45 13 -31 -2 -47 2 -68 21 -16 13 -25 29 -22 34
4 6 45 14 91 18 96 8 111 14 102 43 -25 78 -124 124 -220 101z m82 -51 c7 -7
12 -22 12 -35 0 -20 -5 -23 -35 -23 -30 0 -35 3 -35 23 0 24 17 47 35 47 6 0
16 -5 23 -12z"/>
<path d="M1080 1618 c0 -19 2 -20 10 -8 13 19 13 30 0 30 -5 0 -10 -10 -10
-22z"/>
<path d="M2489 1701 c-14 -5 -35 -13 -46 -19 -17 -9 -22 -9 -27 3 -4 11 -22
15 -71 15 l-65 0 0 -195 0 -195 70 0 70 0 0 69 0 68 68 -5 c81 -5 134 14 157
59 20 37 19 119 -1 147 -29 41 -106 68 -155 53z m10 -65 c19 -23 25 -83 11
-116 -13 -32 -39 -45 -70 -35 -18 6 -20 15 -20 80 0 49 4 75 13 78 24 10 55 7
66 -7z"/>
<path d="M2447 1633 c-4 -3 -6 -36 -5 -72 l2 -66 3 60 c2 32 9 65 15 72 11 13
-3 19 -15 6z"/>
<path d="M740 1570 l0 -130 70 0 70 0 0 130 0 130 -70 0 -70 0 0 -130z"/>
<path d="M903 1665 c0 -22 2 -30 4 -17 2 12 2 30 0 40 -3 9 -5 -1 -4 -23z"/>
<path d="M2679 1563 c-6 -71 -23 -96 -84 -124 -22 -10 -32 -19 -22 -19 24 0
68 23 90 48 24 27 37 82 28 124 -7 29 -8 25 -12 -29z"/>
<path d="M1213 1543 c9 -2 23 -2 30 0 6 3 -1 5 -18 5 -16 0 -22 -2 -12 -5z"/>
<path d="M1133 1533 c9 -2 23 -2 30 0 6 3 -1 5 -18 5 -16 0 -22 -2 -12 -5z"/>
<path d="M2246 1511 c-20 -37 -72 -81 -99 -82 -16 -1 -17 -3 -5 -6 35 -9 110
49 121 95 7 30 0 28 -17 -7z"/>
<path d="M898 1465 c-2 -25 0 -45 4 -45 5 0 8 20 8 45 0 25 -2 45 -4 45 -2 0
-6 -20 -8 -45z"/>
<path d="M1440 1466 c0 -19 -6 -37 -12 -39 -8 -3 -6 -6 5 -6 13 -1 17 7 17 39
0 22 -2 40 -5 40 -3 0 -5 -15 -5 -34z"/>
<path d="M1210 1445 c-14 -8 -34 -15 -45 -15 -11 -1 -14 -4 -8 -7 17 -6 83 16
83 28 0 11 0 11 -30 -6z"/>
<path d="M1645 1430 c-13 -6 -15 -9 -5 -9 8 0 22 4 30 9 18 12 2 12 -25 0z"/>
<path d="M2438 1360 c-2 -39 0 -70 4 -70 3 0 8 32 10 70 2 39 0 70 -4 70 -3 0
-8 -32 -10 -70z"/>
</g>
</svg>
