<?xml version="1.0" standalone="no"?>
<!DOCTYPE svg PUBLIC "-//W3C//DTD SVG 20010904//EN"
 "http://www.w3.org/TR/2001/REC-SVG-20010904/DTD/svg10.dtd">
<svg version="1.0" xmlns="http://www.w3.org/2000/svg"
 width="200.000000pt" height="85.000000pt" viewBox="0 0 200.000000 85.000000"
 preserveAspectRatio="xMidYMid meet">
<metadata>
Created by potrace 1.10, written by Peter Selinger 2001-2011
</metadata>
<g transform="translate(0.000000,85.000000) scale(0.100000,-0.100000)"
fill="#000000" stroke="none">
<path d="M579 403 c-59 -3 -67 -6 -78 -29 -14 -33 -14 -35 5 -27 15 5 16 1 10
-33 -4 -21 -15 -47 -23 -56 -15 -16 -15 -18 0 -18 22 0 23 -47 2 -76 -14 -21
-13 -22 32 -28 86 -11 109 -8 127 19 l16 25 -50 0 c-49 0 -50 1 -50 30 0 25 4
30 25 30 23 0 45 24 45 49 0 6 -13 11 -30 11 -25 0 -30 4 -30 25 0 23 4 25 43
25 38 0 44 3 54 30 10 28 10 30 -10 28 -12 -1 -52 -3 -88 -5z"/>
<path d="M740 401 c-23 -6 -25 -11 -28 -86 -2 -44 -7 -104 -11 -133 l-8 -53
31 7 c17 3 34 8 38 10 3 2 9 43 12 92 4 48 9 106 12 130 6 45 3 47 -46 33z"/>
<path d="M913 403 c-50 -3 -65 -8 -78 -26 -19 -27 -19 -41 0 -33 22 8 20 -52
-2 -77 -13 -15 -15 -21 -5 -24 17 -6 15 -63 -4 -84 -15 -16 -12 -18 49 -24 80
-9 96 -6 115 22 14 23 14 23 -37 23 -37 0 -51 4 -51 14 0 29 13 46 34 46 15 0
25 9 33 30 11 30 11 30 -23 30 -34 0 -39 6 -28 34 4 11 19 16 43 16 31 0 40 5
49 25 16 34 16 35 -10 33 -13 -1 -51 -3 -85 -5z"/>
<path d="M1082 403 c-29 -6 -30 -7 -40 -133 -5 -58 -12 -113 -16 -123 -7 -15
-1 -17 68 -17 73 0 77 1 86 26 15 39 13 42 -30 34 -45 -8 -54 -2 -46 38 3 15
8 58 11 97 4 38 9 73 11 77 5 8 -5 8 -44 1z"/>
<path d="M1530 401 c-24 -6 -25 -12 -33 -105 -7 -82 -6 -102 8 -122 24 -36 58
-49 102 -38 50 12 80 58 88 132 3 31 8 77 11 100 l6 44 -34 -7 c-18 -4 -36 -9
-40 -12 -5 -2 -8 -37 -8 -78 0 -95 -11 -125 -46 -125 l-27 0 7 95 c3 52 9 101
12 110 7 16 -4 18 -46 6z"/>
<path d="M1790 401 c-23 -4 -39 -14 -47 -31 -11 -22 -10 -25 5 -28 17 -3 17
-10 7 -107 -6 -58 -8 -105 -4 -105 3 0 20 5 38 11 26 9 31 16 31 44 0 30 3 33
38 39 52 8 90 39 98 81 15 84 -44 118 -166 96z m98 -74 c5 -24 -25 -57 -51
-57 -13 0 -17 5 -13 16 3 9 6 27 6 40 0 22 4 25 27 22 17 -2 29 -10 31 -21z"/>
<path d="M296 387 c-17 -13 -17 -16 12 -74 30 -59 31 -61 18 -121 -7 -34 -9
-62 -4 -62 5 0 22 7 38 15 22 11 30 24 35 57 4 24 27 77 50 118 24 41 42 76
41 78 -2 1 -17 -1 -35 -4 -24 -5 -37 -16 -49 -40 -8 -19 -20 -34 -25 -34 -5 0
-16 18 -24 40 -17 43 -28 48 -57 27z"/>
<path d="M1232 364 c-35 -34 -36 -35 -11 -30 l26 6 -5 -78 c-2 -42 -10 -87
-18 -99 -8 -12 -14 -25 -14 -29 0 -14 122 5 164 26 70 34 103 106 76 169 -15
38 -81 71 -138 71 -35 0 -49 -6 -80 -36z m133 -34 c21 -23 24 -75 6 -109 -11
-19 -56 -39 -66 -29 -3 3 -2 39 1 81 6 63 10 77 24 77 9 0 25 -9 35 -20z"/>
</g>
</svg>
